#!OML:ASF I:\Random Stuff\random\construction\7_22_03\Session 2\subj1.ASF
:FULLY-SPECIFIED
:DEGREES
643
root 4.02934 17.7751 -7.47952 18.5285 -32.7387 -3.0198
lowerback 9.89032 -0.533857 2.43787
upperback 3.28129 -0.480544 1.09127
thorax -2.14389 -0.25434 -0.186396
lowerneck -21.9376 0.0887594 -2.89713
upperneck 43.7336 -1.30049 4.16209
head 21.5471 -0.606965 2.33593
rclavicle 6.49715e-014 -4.31114e-014
rhumerus -13.8214 37.633 -71.7603
rradius 81.2488
rwrist 21.3751
rhand -37.6393 32.5638
rfingers 7.12502
rthumb -10.6913 2.85581
lclavicle 6.49715e-014 -4.31114e-014
lhumerus -22.4869 -64.8625 107.165
lradius 79.3011
lwrist 75.9516
lhand -29.724 71.2225
lfingers 7.12502
lthumb -3.0509 -461.18
rfemur -23.9428 6.07314 16.6477
rtibia 12.23
rfoot -3.95141 -5.65499
rtoes -9.98463
lfemur -22.2717 -4.9033 -11.877
ltibia 23.4403
lfoot -15.999 16.4014
ltoes -30.919
644
root 4.03129 17.7739 -7.47708 18.4855 -32.7468 -2.98651
lowerback 9.88036 -0.509171 2.49031
upperback 3.28341 -0.443921 1.06968
thorax -2.1359 -0.235915 -0.242519
lowerneck -21.9586 0.0299041 -2.90304
upperneck 43.7711 -1.45116 4.27443
head 21.596 -0.649119 2.36336
rclavicle -6.42447e-014 3.40667e-014
rhumerus -13.9317 37.5267 -71.9021
rradius 81.0526
rwrist 21.3406
rhand -37.9288 32.2324
rfingers 7.12502
rthumb -10.9706 2.53903
lclavicle -6.42447e-014 3.40667e-014
lhumerus -22.5321 -64.7331 107.282
lradius 79.1894
lwrist 75.8344
lhand -29.5238 71.011
lfingers 7.12502
lthumb -2.85754 -460.972
rfemur -23.9894 6.01704 16.633
rtibia 12.3726
rfoot -4.00824 -5.63486
rtoes -10.3698
lfemur -22.2514 -4.71892 -11.9597
ltibia 23.45
lfoot -15.9007 16.269
ltoes -31.3963
645
root 4.03178 17.772 -7.47458 18.4048 -32.7668 -2.94162
lowerback 9.88392 -0.49113 2.44932
upperback 3.31103 -0.424194 1.09818
thorax -2.10834 -0.226072 -0.192408
lowerneck -22.0242 -0.0600076 -2.90972
upperneck 43.8663 -1.62774 4.32546
head 21.7039 -0.710842 2.35531
rclavicle 1.01629e-014 -1.31446e-014
rhumerus -13.9586 37.4693 -71.893
rradius 80.7936
rwrist 21.2403
rhand -38.7568 31.9246
rfingers 7.12502
rthumb -11.7691 2.27528
lclavicle 1.01629e-014 -1.31446e-014
lhumerus -22.4623 -64.5529 107.329
lradius 79.107
lwrist 75.767
lhand -29.551 70.9581
lfingers 7.12502
lthumb -2.88384 -460.918
rfemur -24.0077 6.06002 16.5744
rtibia 12.5477
rfoot -4.08279 -5.67555
rtoes -10.4769
lfemur -22.1811 -4.58887 -12.0412
ltibia 23.4522
lfoot -15.9011 16.1328
ltoes -31.4297
646
root 4.03207 17.7716 -7.47168 18.3039 -32.7511 -2.88092
lowerback 9.89384 -0.495356 2.3541
upperback 3.34508 -0.438221 1.15836
thorax -2.0778 -0.233228 -0.075164
lowerneck -22.1367 -0.0352693 -3.08108
upperneck 43.9551 -1.58485 4.48361
head 21.8089 -0.705171 2.48776
rclavicle -4.10987e-014 4.72114e-015
rhumerus -13.9854 37.4064 -71.8453
rradius 80.5916
rwrist 21.3451
rhand -39.3978 31.8983
rfingers 7.12502
rthumb -12.3873 2.2853
lclavicle -4.10987e-014 4.72114e-015
lhumerus -22.3419 -64.3417 107.355
lradius 79.0493
lwrist 75.6732
lhand -29.4214 71.0167
lfingers 7.12502
lthumb -2.75865 -460.979
rfemur -24.021 6.11281 16.4957
rtibia 12.7493
rfoot -4.16607 -5.75588
rtoes -10.4689
lfemur -22.1066 -4.49063 -12.1289
ltibia 23.4465
lfoot -15.9856 15.9545
ltoes -30.9548
647
root 4.03248 17.7716 -7.46819 18.2424 -32.7204 -2.85321
lowerback 9.8748 -0.495907 2.33275
upperback 3.37342 -0.441898 1.18631
thorax -2.03768 -0.234877 -0.0341522
lowerneck -22.0607 -0.173348 -2.83339
upperneck 43.8588 -1.78239 4.18744
head 21.7182 -0.772263 2.23103
rclavicle 7.57121e-014 -4.93483e-014
rhumerus -14.0655 37.2562 -71.9146
rradius 80.47
rwrist 21.4954
rhand -39.8244 31.7739
rfingers 7.12502
rthumb -12.7985 2.1862
lclavicle 7.57121e-014 -4.93483e-014
lhumerus -22.3015 -64.1982 107.389
lradius 79.0571
lwrist 75.55
lhand -29.2697 71.0155
lfingers 7.12502
lthumb -2.61222 -460.979
rfemur -24.0315 6.08824 16.4702
rtibia 12.9129
rfoot -4.25415 -5.74851
rtoes -10.8363
lfemur -22.0598 -4.4667 -12.1756
ltibia 23.4482
lfoot -16.0615 15.8725
ltoes -30.5871
648
root 4.03244 17.7718 -7.46465 18.2364 -32.6962 -2.8781
lowerback 9.83491 -0.498503 2.37899
upperback 3.39003 -0.442423 1.20552
thorax -1.99866 -0.234766 -0.040622
lowerneck -22.0775 -0.177861 -2.90415
upperneck 43.8755 -1.7996 4.27605
head 21.7407 -0.779164 2.28833
rclavicle -6.54499e-014 1.15295e-014
rhumerus -14.1087 37.14 -71.9827
rradius 80.3505
rwrist 21.3936
rhand -40.6132 31.2095
rfingers 7.12502
rthumb -13.5589 1.67095
lclavicle -6.54499e-014 1.15295e-014
lhumerus -22.3315 -64.0597 107.454
lradius 79.0524
lwrist 75.4035
lhand -29.2316 70.9517
lfingers 7.12502
lthumb -2.57541 -460.916
rfemur -24.0301 6.06179 16.4913
rtibia 13.0134
rfoot -4.35165 -5.66283
rtoes -11.1961
lfemur -22.0412 -4.47226 -12.1655
ltibia 23.4654
lfoot -16.0008 15.8906
ltoes -30.9236
649
root 4.0316 17.7709 -7.46171 18.2401 -32.6888 -2.89914
lowerback 9.79398 -0.531413 2.37022
upperback 3.39798 -0.486882 1.269
thorax -1.96812 -0.25692 0.0345914
lowerneck -22.0818 -0.146963 -2.98195
upperneck 43.8984 -1.70265 4.25177
head 21.7518 -0.76128 2.31364
rclavicle -7.18607e-014 7.70291e-015
rhumerus -14.0076 37.2229 -71.8623
rradius 80.2251
rwrist 21.1871
rhand -40.6411 31.3659
rfingers 7.12502
rthumb -13.5857 1.82916
lclavicle -7.18607e-014 7.70291e-015
lhumerus -22.3211 -63.7562 107.546
lradius 78.9693
lwrist 75.1833
lhand -29.1121 70.8367
lfingers 7.12502
lthumb -2.45994 -460.802
rfemur -24.0516 6.09798 16.4938
rtibia 13.0982
rfoot -4.41608 -5.69443
rtoes -10.9438
lfemur -22.038 -4.419 -12.1623
ltibia 23.4913
lfoot -15.9316 15.8593
ltoes -31.3153
650
root 4.03147 17.7692 -7.45945 18.2372 -32.6871 -2.88001
lowerback 9.74638 -0.580415 2.31262
upperback 3.40159 -0.557238 1.32965
thorax -1.93836 -0.292061 0.137092
lowerneck -22.1421 -0.0923675 -3.19751
upperneck 43.9892 -1.58971 4.4014
head 21.8363 -0.740307 2.46517
rclavicle 9.38761e-014 -3.33958e-014
rhumerus -13.7884 37.3851 -71.6617
rradius 80.0954
rwrist 21.131
rhand -39.6167 32.4093
rfingers 7.12502
rthumb -12.5982 2.80922
lclavicle 9.38761e-014 -3.33958e-014
lhumerus -22.3135 -63.4451 107.603
lradius 78.9329
lwrist 74.9945
lhand -28.9892 70.7421
lfingers 7.12502
lthumb -2.34128 -460.709
rfemur -24.1138 6.1388 16.464
rtibia 13.1863
rfoot -4.42063 -5.83171
rtoes -10.7196
lfemur -22.0637 -4.34241 -12.1964
ltibia 23.5264
lfoot -16.0412 15.7808
ltoes -30.9816
651
root 4.03225 17.7683 -7.45787 18.2318 -32.6642 -2.8395
lowerback 9.71851 -0.615141 2.28187
upperback 3.39525 -0.606277 1.34144
thorax -1.92995 -0.316441 0.171809
lowerneck -22.0995 -0.10711 -3.19546
upperneck 43.9162 -1.58319 4.34423
head 21.7654 -0.743647 2.43142
rclavicle 7.9166e-014 -5.15846e-014
rhumerus -13.549 37.4196 -71.5242
rradius 79.967
rwrist 21.2151
rhand -38.9931 33.0379
rfingers 7.12502
rthumb -11.997 3.40172
lclavicle 7.9166e-014 -5.15846e-014
lhumerus -22.4111 -63.2926 107.687
lradius 78.9592
lwrist 74.8633
lhand -28.9879 70.7935
lfingers 7.12502
lthumb -2.34002 -460.76
rfemur -24.1748 6.13097 16.4285
rtibia 13.2718
rfoot -4.42466 -5.90886
rtoes -11.0205
lfemur -22.1153 -4.25642 -12.2488
ltibia 23.571
lfoot -16.1787 15.6701
ltoes -30.394
652
root 4.03213 17.7669 -7.45626 18.206 -32.6469 -2.79032
lowerback 9.70851 -0.638477 2.2717
upperback 3.39879 -0.638913 1.31939
thorax -1.9214 -0.332449 0.15824
lowerneck -22.1527 -0.0788434 -3.20519
upperneck 43.9671 -1.56495 4.40423
head 21.8209 -0.732105 2.47283
rclavicle -7.9663e-014 3.47873e-015
rhumerus -13.2603 37.3664 -71.4236
rradius 79.8446
rwrist 21.3918
rhand -38.838 33.1239
rfingers 7.12502
rthumb -11.8475 3.47905
lclavicle -7.9663e-014 3.47873e-015
lhumerus -22.5292 -63.2063 107.776
lradius 79.0012
lwrist 74.7342
lhand -29.0259 70.9642
lfingers 7.12502
lthumb -2.3767 -460.931
rfemur -24.2132 6.06886 16.4002
rtibia 13.3656
rfoot -4.47711 -5.89982
rtoes -11.1818
lfemur -22.1433 -4.0865 -12.3248
ltibia 23.6138
lfoot -16.2152 15.4713
ltoes -30.1888
653
root 4.03169 17.7651 -7.45422 18.1856 -32.6627 -2.75074
lowerback 9.68573 -0.66 2.26766
upperback 3.40949 -0.669316 1.2966
thorax -1.89847 -0.34723 0.140001
lowerneck -22.2174 -0.0363833 -3.15274
upperneck 44.0245 -1.49607 4.34658
head 21.8777 -0.707089 2.45225
rclavicle 1.39149e-014 -1.15792e-014
rhumerus -12.8544 37.2877 -71.2697
rradius 79.7099
rwrist 21.8188
rhand -38.4937 33.1578
rfingers 7.12502
rthumb -11.5154 3.4941
lclavicle 1.39149e-014 -1.15792e-014
lhumerus -22.5965 -63.117 107.783
lradius 79.0894
lwrist 74.6587
lhand -28.897 70.7965
lfingers 7.12502
lthumb -2.25221 -460.764
rfemur -24.2668 5.96269 16.3964
rtibia 13.4698
rfoot -4.52191 -5.82719
rtoes -11.4706
lfemur -22.1577 -3.85941 -12.4098
ltibia 23.6542
lfoot -16.1465 15.2633
ltoes -30.414
654
root 4.0322 17.764 -7.45217 18.1885 -32.6872 -2.74502
lowerback 9.67432 -0.68462 2.25418
upperback 3.40467 -0.70294 1.31197
thorax -1.89733 -0.364044 0.167103
lowerneck -22.1838 -0.0251692 -3.06149
upperneck 43.971 -1.43668 4.1757
head 21.8168 -0.691294 2.35469
rclavicle -4.58199e-014 -3.22528e-014
rhumerus -12.3677 37.2019 -70.9948
rradius 79.5423
rwrist 22.6236
rhand -37.9854 33.2642
rfingers 7.12502
rthumb -11.0252 3.57373
lclavicle -4.58199e-014 -3.22528e-014
lhumerus -22.6414 -62.9905 107.786
lradius 79.1686
lwrist 74.635
lhand -28.7081 70.4595
lfingers 7.12502
lthumb -2.06984 -460.429
rfemur -24.3358 5.86536 16.4242
rtibia 13.5696
rfoot -4.51958 -5.73697
rtoes -12.3061
lfemur -22.1754 -3.75777 -12.4462
ltibia 23.694
lfoot -16.0269 15.2061
ltoes -30.7648
